HIERARCHY
ROOT Hips
{
	OFFSET 0.000000 0.000000 0.000000
	CHANNELS 6 Xposition Yposition Zposition Zrotation Yrotation Xrotation 
	JOINT LowerBack
	{
		OFFSET 0.000000 0.000000 0.000000
		CHANNELS 3 Zrotation Yrotation Xrotation
		JOINT Spine
		{
			OFFSET 0.028270 2.035590 -0.193380
			CHANNELS 3 Zrotation Yrotation Xrotation
			JOINT Spine1
			{
				OFFSET 0.056720 2.048850 -0.042750
				CHANNELS 3 Zrotation Yrotation Xrotation
				JOINT Neck
				{
					OFFSET 0.000000 0.000000 0.000000
					CHANNELS 3 Zrotation Yrotation Xrotation
					JOINT Neck1
					{
						OFFSET -0.054170 1.746240 0.172020
						CHANNELS 3 Zrotation Yrotation Xrotation
						JOINT Head
						{
							OFFSET 0.104070 1.761360 -0.123970
							CHANNELS 3 Zrotation Yrotation Xrotation
							End Site
							{
								OFFSET 0.000000 0.000000 0.000000
							}
						}
					}
				}
				JOINT LeftShoulder
				{
					OFFSET 0.000000 0.000000 0.000000
					CHANNELS 3 Zrotation Yrotation Xrotation
					JOINT LeftArm
					{
						OFFSET 3.362410 1.200890 -0.311210
						CHANNELS 3 Zrotation Yrotation Xrotation
						JOINT LeftForeArm
						{
							OFFSET 4.983000 -0.000000 -0.000000
							CHANNELS 3 Zrotation Yrotation Xrotation
							JOINT LeftHand
							{
								OFFSET 3.483560 -0.000000 -0.000000
								CHANNELS 3 Zrotation Yrotation Xrotation
								JOINT LeftFingerBase
								{
									OFFSET 0.000000 0.000000 0.000000
									CHANNELS 3 Zrotation Yrotation Xrotation
									JOINT LeftHandIndex1
									{
										OFFSET 0.715260 -0.000000 -0.000000
										CHANNELS 3 Zrotation Yrotation Xrotation
										End Site
										{
											OFFSET 0.000000 0.000000 0.000000
										}
									}
								}
								JOINT LThumb
								{
									OFFSET 0.000000 0.000000 0.000000
									CHANNELS 3 Zrotation Yrotation Xrotation
									End Site
									{
										OFFSET 0.000000 0.000000 0.000000
									}
								}
							}
						}
					}
				}
				JOINT RightShoulder
				{
					OFFSET 0.000000 0.000000 0.000000
					CHANNELS 3 Zrotation Yrotation Xrotation
					JOINT RightArm
					{
						OFFSET -3.136600 1.374050 -0.404650
						CHANNELS 3 Zrotation Yrotation Xrotation
						JOINT RightForeArm
						{
							OFFSET -5.241900 -0.000000 -0.000000
							CHANNELS 3 Zrotation Yrotation Xrotation
							JOINT RightHand
							{
								OFFSET -3.444170 -0.000000 -0.000000
								CHANNELS 3 Zrotation Yrotation Xrotation
								JOINT RightFingerBase
								{
									OFFSET 0.000000 0.000000 0.000000
									CHANNELS 3 Zrotation Yrotation Xrotation
									JOINT RightHandIndex1
									{
										OFFSET -0.622530 -0.000000 -0.000000
										CHANNELS 3 Zrotation Yrotation Xrotation
										End Site
										{
											OFFSET 0.000000 0.000000 0.000000
										}
									}
								}
								JOINT RThumb
								{
									OFFSET 0.000000 0.000000 0.000000
									CHANNELS 3 Zrotation Yrotation Xrotation
									End Site
									{
										OFFSET 0.000000 0.000000 0.000000
									}
								}
							}
						}
					}
				}
			}
		}
	}
}
}
MOTION
Frames: 18
Frame Time: 0.008333
4.800421 16.227720 -2.577188 169.944219 73.580330 -176.990410 -1.742485 -0.465550 -3.711227 -1.055948 -0.424651 -3.763975 -7.448066 -0.267838 -1.972773 9.061201 -10.759094 -6.448923 -3.973352 -0.315489 0.302188 0.000000 0.000000 0.000000 -0.211211 7.390274 -1.228921 -74.949117 -13.789311 28.716196 -178.952029 -71.738564 179.855902 19.982830 -20.484773 -3.985892 -0.652788 1.241876 -0.000000 0.000000 0.000000 0.000000 0.000000 0.000000 0.000000 9.583477 -5.059715 -1.290832 78.512315 -4.905532 25.145838 -179.333784 75.632702 179.848592 -16.514953 34.618603 -5.428147 0.182741 -1.145463 0.000000 0.000000 0.000000 0.000000 0.000000 0.000000 0.000000 
4.992966 16.292558 -2.634406 170.282222 72.536099 -176.684099 -1.736183 -0.966068 -3.634112 -0.973618 -0.913829 -3.736470 -7.316153 -0.773874 -2.010907 9.001859 -11.376926 -6.331547 -3.879183 -0.309447 0.343057 0.000000 0.000000 0.000000 0.209204 5.903936 -1.203942 -75.202959 -15.424480 29.348874 -178.898925 -71.513857 179.854504 19.465834 -20.675130 -3.925763 -0.648662 1.282661 -0.000000 0.000000 0.000000 0.000000 0.000000 0.000000 0.000000 9.023436 -6.142341 -1.157708 77.915039 -6.173757 25.312592 -179.317466 75.082402 179.844644 -16.754097 34.467656 -5.481044 0.181707 -1.139350 0.000000 0.000000 0.000000 0.000000 0.000000 0.000000 0.000000 
5.188283 16.368566 -2.696062 170.738596 71.536144 -176.282501 -1.676488 -1.486053 -3.552478 -0.878100 -1.427316 -3.709747 -7.165535 -1.304731 -2.037041 8.941620 -11.997866 -6.248778 -3.771980 -0.302210 0.374596 0.000000 0.000000 0.000000 0.697763 4.536251 -1.191638 -75.448456 -16.898370 29.906214 -178.848184 -71.196729 179.854187 18.894842 -20.850765 -3.849130 -0.641686 1.321665 -0.000000 0.000000 0.000000 0.000000 0.000000 0.000000 0.000000 8.404462 -7.202530 -1.031204 77.265301 -7.351363 25.570985 -179.306586 74.494530 179.841742 -16.887650 34.325734 -5.500242 0.180018 -1.134584 0.000000 0.000000 0.000000 0.000000 0.000000 0.000000 0.000000 
5.386635 16.454617 -2.762817 171.321749 70.598614 -175.768858 -1.550879 -2.015733 -3.480760 -0.768053 -1.956954 -3.686099 -6.997491 -1.852317 -2.046317 8.876456 -12.621380 -6.202780 -3.654298 -0.293948 0.396127 0.000000 0.000000 0.000000 1.226334 3.311244 -1.193532 -75.683854 -18.215962 30.401752 -178.800234 -70.805516 179.854729 18.314991 -21.005722 -3.764275 -0.633391 1.358266 -0.000000 0.000000 0.000000 0.000000 0.000000 0.000000 0.000000 7.740538 -8.237613 -0.915834 76.551149 -8.425291 25.903714 -179.302904 73.889992 179.840066 -16.906438 34.187177 -5.482241 0.177608 -1.130601 0.000000 0.000000 0.000000 0.000000 0.000000 0.000000 0.000000 
5.588229 16.549425 -2.835148 172.038054 69.736468 -175.129804 -1.350619 -2.543970 -3.432062 -0.642488 -2.492588 -3.670114 -6.811261 -2.407219 -2.045114 8.799210 -13.242955 -6.184249 -3.529662 -0.285043 0.410322 0.000000 0.000000 0.000000 1.780440 2.203406 -1.211910 -75.916195 -19.335734 30.824937 -178.760862 -70.347864 179.855687 17.760726 -21.143039 -3.679182 -0.624337 1.392170 -0.000000 0.000000 0.000000 0.000000 0.000000 0.000000 0.000000 7.039861 -9.243632 -0.811610 75.765584 -9.397532 26.285621 -179.307783 73.285305 179.839697 -16.806320 34.045469 -5.424951 0.174353 -1.126799 0.000000 0.000000 0.000000 0.000000 0.000000 0.000000 0.000000 
5.793234 16.651540 -2.913388 172.892642 68.956428 -174.353327 -1.069878 -3.060191 -3.418504 -0.500871 -3.024161 -3.665284 -6.607112 -2.959957 -2.036919 8.703609 -13.862980 -6.185429 -3.401228 -0.275815 0.419423 0.000000 0.000000 0.000000 2.345783 1.192236 -1.248214 -76.153712 -20.237764 31.180033 -178.735062 -69.837624 179.856632 17.263092 -21.266559 -3.601243 -0.615286 1.423279 -0.000000 0.000000 0.000000 0.000000 0.000000 0.000000 0.000000 6.310752 -10.222511 -0.718717 74.903561 -10.268611 26.694627 -179.322437 72.693896 179.840674 -16.591271 33.892285 -5.328671 0.170293 -1.122617 0.000000 0.000000 0.000000 0.000000 0.000000 0.000000 0.000000 
6.001749 16.759328 -2.997609 173.887157 68.259363 -173.431627 -0.706846 -3.554755 -3.449886 -0.343319 -3.542040 -3.674470 -6.385843 -3.501384 -2.025402 8.584846 -14.484302 -6.198571 -3.271524 -0.266534 0.425671 0.000000 0.000000 0.000000 2.912742 0.253722 -1.303559 -76.406534 -20.909938 31.475114 -178.728263 -69.292752 179.857191 16.843615 -21.380541 -3.536152 -0.606725 1.451528 -0.000000 0.000000 0.000000 0.000000 0.000000 0.000000 0.000000 5.559333 -11.178383 -0.636258 73.964177 -11.041012 27.110860 -179.347496 72.122917 179.842964 -16.271451 33.719857 -5.196206 0.165565 -1.117665 0.000000 0.000000 0.000000 0.000000 0.000000 0.000000 0.000000 
6.213855 16.871036 -3.087683 175.016967 67.639859 -172.363424 -0.265136 -4.020038 -3.532400 -0.170873 -4.038067 -3.699393 -6.148861 -4.023638 -2.013320 8.440584 -15.112230 -6.217329 -3.142582 -0.257412 0.430864 0.000000 0.000000 0.000000 3.476811 -0.634566 -1.378892 -76.687083 -21.351857 31.723574 -178.745627 -68.735148 179.857103 16.512158 -21.487651 -3.486910 -0.598826 1.476792 -0.000000 0.000000 0.000000 0.000000 0.000000 0.000000 0.000000 4.792865 -12.117668 -0.562563 72.947980 -11.717964 27.517970 -179.383317 71.578871 179.846506 -15.862486 33.522872 -5.032452 0.160412 -1.111617 0.000000 0.000000 0.000000 0.000000 0.000000 0.000000 0.000000 
6.429507 16.984685 -3.183064 176.265743 67.088823 -171.160905 0.244580 -4.450252 -3.668167 0.014113 -4.505317 -3.740751 -5.897893 -4.519883 -2.003687 8.271386 -15.753835 -6.236585 -3.015566 -0.248577 0.436397 0.000000 0.000000 0.000000 4.041517 -1.496186 -1.475849 -77.009317 -21.569878 31.936540 -178.792123 -68.184519 179.856218 16.264712 -21.588236 -3.452835 -0.591273 1.498890 -0.000000 0.000000 0.000000 0.000000 0.000000 0.000000 0.000000 4.016475 -13.047372 -0.494847 71.860169 -12.303081 27.903434 -179.429439 71.060468 179.851166 -15.383620 33.299720 -4.844210 0.155139 -1.104456 0.000000 0.000000 0.000000 0.000000 0.000000 0.000000 0.000000 
6.648583 17.098269 -3.282970 177.609844 66.592420 -169.844819 0.806435 -4.842493 -3.854310 0.208201 -4.939415 -3.797395 -5.636005 -4.985461 -1.996719 8.082552 -16.416866 -6.255087 -2.890998 -0.240053 0.442459 0.000000 0.000000 0.000000 4.612331 -2.341593 -1.595028 -77.383484 -21.589725 32.130692 -178.870576 -67.666765 179.854564 16.088080 -21.677486 -3.430742 -0.583568 1.517355 -0.000000 0.000000 0.000000 0.000000 0.000000 0.000000 0.000000 3.240393 -13.974685 -0.430970 70.705491 -12.799271 28.258389 -179.485281 70.568588 179.856808 -14.856623 33.053333 -4.639774 0.150112 -1.096231 0.000000 0.000000 0.000000 0.000000 0.000000 0.000000 0.000000 
6.870873 17.209724 -3.386283 179.010184 66.135531 -168.452999 1.396566 -5.196529 -4.082958 0.406382 -5.338064 -3.866928 -5.366863 -5.417523 -1.992603 7.883520 -17.108250 -6.273249 -2.769002 -0.231803 0.448699 0.000000 0.000000 0.000000 5.201113 -3.178976 -1.737290 -77.818878 -21.441744 32.317979 -178.982115 -67.202250 179.852283 15.958647 -21.747486 -3.414462 -0.574867 1.531677 -0.000000 0.000000 0.000000 0.000000 0.000000 0.000000 0.000000 2.476848 -14.905736 -0.368736 69.491337 -13.209796 28.576471 -179.549657 70.098079 179.863248 -14.304136 32.790076 -4.428040 0.145707 -1.087245 0.000000 0.000000 0.000000 0.000000 0.000000 0.000000 0.000000 
7.095996 17.317073 -3.491620 -179.586955 65.701573 -167.041118 1.984277 -5.515136 -4.340794 0.602308 -5.701434 -3.945477 -5.094676 -5.815393 -1.990517 7.687162 -17.833063 -6.293544 -2.649528 -0.223744 0.454126 0.000000 0.000000 0.000000 5.821738 -4.009981 -1.903045 -78.319742 -21.161944 32.505751 -179.125364 -66.807347 179.849620 15.846284 -21.786770 -3.395927 -0.564168 1.541267 -0.000000 0.000000 0.000000 0.000000 0.000000 0.000000 0.000000 1.742238 -15.845526 -0.306674 68.226036 -13.536869 28.853447 -179.621320 69.645945 179.870306 -13.748417 32.520545 -4.217801 0.142286 -1.077865 0.000000 0.000000 0.000000 0.000000 0.000000 0.000000 0.000000 
7.323540 17.418469 -3.597418 -178.246284 65.276170 -165.678239 2.534142 -5.803803 -4.610225 0.788791 -6.031954 -4.028160 -4.823494 -6.180434 -1.989482 7.507942 -18.595807 -6.319649 -2.532281 -0.215756 0.457418 0.000000 0.000000 0.000000 6.489839 -4.836090 -2.092925 -78.885338 -20.782043 32.691875 -179.297418 -66.490834 179.846863 15.717228 -21.782925 -3.365974 -0.550320 1.545567 -0.000000 0.000000 0.000000 0.000000 0.000000 0.000000 0.000000 1.053826 -16.799768 -0.243395 66.919572 -13.779134 29.088384 -179.699138 69.211798 179.877813 -13.211915 32.256427 -4.017653 0.140225 -1.068446 0.000000 0.000000 0.000000 0.000000 0.000000 0.000000 0.000000 
7.552880 17.512347 -3.702323 -177.025282 64.847779 -164.429450 3.015985 -6.068638 -4.871022 0.958878 -6.333171 -4.108793 -4.561238 -6.514787 -1.985594 7.364407 -19.384619 -6.357033 -2.418083 -0.207764 0.456710 0.000000 0.000000 0.000000 7.204856 -5.627040 -2.300329 -79.503597 -20.367464 32.893313 -179.486474 -66.271603 179.844444 15.550862 -21.717143 -3.317626 -0.533459 1.544031 -0.000000 0.000000 0.000000 0.000000 0.000000 0.000000 0.000000 0.440490 -17.756949 -0.182675 65.580646 -13.949939 29.268496 -179.780882 68.783217 179.885531 -12.709440 32.008361 -3.833190 0.139627 -1.059566 0.000000 0.000000 0.000000 0.000000 0.000000 0.000000 0.000000 
7.783354 17.597400 -3.805089 -175.980652 64.410408 -163.361011 3.400492 -6.316817 -5.102728 1.106425 -6.609511 -4.182136 -4.311395 -6.821745 -1.978692 7.268442 -20.194268 -6.408589 -2.307161 -0.199704 0.451050 0.000000 0.000000 0.000000 7.971535 -6.380443 -2.523033 -80.163412 -19.939435 33.096951 -179.685188 -66.144020 179.842657 15.320520 -21.580203 -3.244509 -0.512925 1.536601 -0.000000 0.000000 0.000000 0.000000 0.000000 0.000000 0.000000 -0.082094 -18.715149 -0.124501 64.221625 -14.047785 29.392854 -179.865590 68.363341 179.893299 -12.257823 31.784945 -3.670010 0.140714 -1.051440 0.000000 0.000000 0.000000 0.000000 0.000000 0.000000 0.000000 
8.014257 17.672728 -3.904979 -175.142399 63.964107 -162.514996 3.673031 -6.553305 -5.285625 1.227583 -6.864434 -4.243247 -4.078716 -7.103724 -1.968468 7.229568 -21.009595 -6.476409 -2.200795 -0.191603 0.439747 0.000000 0.000000 0.000000 8.778412 -7.081656 -2.754183 -80.846772 -19.526208 33.296995 -179.882805 -66.103569 179.841764 15.015924 -21.363056 -3.143927 -0.489064 1.523466 -0.000000 0.000000 0.000000 0.000000 0.000000 0.000000 0.000000 -0.496734 -19.662049 -0.070789 62.854536 -14.078831 29.454478 -179.952007 67.952364 179.900984 -11.868363 31.591001 -3.531310 0.143541 -1.044244 0.000000 0.000000 0.000000 0.000000 0.000000 0.000000 0.000000 
8.244817 17.737830 -4.001722 -174.510967 63.514976 -161.905790 3.833571 -6.780226 -5.403201 1.321056 -7.099841 -4.288386 -3.867699 -7.361921 -1.955708 7.252218 -21.809352 -6.560439 -2.100775 -0.183567 0.422772 0.000000 0.000000 0.000000 9.602625 -7.714745 -2.984336 -81.531289 -19.149286 33.488932 179.931549 -66.144197 179.841955 14.637027 -21.063928 -3.017173 -0.462656 1.505210 -0.000000 0.000000 0.000000 0.000000 0.000000 0.000000 0.000000 -0.791485 -20.578717 -0.023693 61.492796 -14.050264 29.445440 179.961139 67.552344 179.908448 -11.546618 31.424704 -3.417789 0.148025 -1.037987 0.000000 0.000000 0.000000 0.000000 0.000000 0.000000 0.000000 
8.474299 17.792509 -4.095468 -174.060681 63.074116 -161.520574 3.895670 -6.996514 -5.444403 1.388382 -7.315670 -4.315911 -3.680723 -7.596084 -1.944014 7.333141 -22.574101 -6.657305 -2.009162 -0.175789 0.401093 0.000000 0.000000 0.000000 10.417197 -8.279185 -3.205257 -82.195655 -18.803494 33.656918 179.764016 -66.246075 179.843219 14.191560 -20.689520 -2.868827 -0.434435 1.482870 -0.000000 0.000000 0.000000 0.000000 0.000000 0.000000 0.000000 -0.966649 -21.447493 0.017082 60.154074 -13.965178 29.362188 179.874743 67.169860 179.915602 -11.294796 31.280576 -3.328748 0.154043 -1.032531 0.000000 0.000000 0.000000 0.000000 0.000000 0.000000 0.000000 
